<?xml version="1.0" encoding="UTF-8"?>
<!DOCTYPE svg PUBLIC "-//W3C//DTD SVG 1.1//EN" "http://www.w3.org/Graphics/SVG/1.1/DTD/svg11.dtd">
<svg xmlns="http://www.w3.org/2000/svg" version="1.1" width="800px" height="800px" style="shape-rendering:geometricPrecision; text-rendering:geometricPrecision; image-rendering:optimizeQuality; fill-rule:evenodd; clip-rule:evenodd" xmlns:xlink="http://www.w3.org/1999/xlink">
<g><path style="opacity:0.997" fill="#2e9cf3" d="M 387.5,103.5 C 387.687,105.564 388.187,107.564 389,109.5C 412.458,161.375 435.625,213.375 458.5,265.5C 464.988,266.167 471.321,266.833 477.5,267.5C 471.463,267.171 465.463,267.504 459.5,268.5C 462.979,276.946 466.646,285.279 470.5,293.5C 470.5,293.833 470.5,294.167 470.5,294.5C 470.389,295.117 470.056,295.617 469.5,296C 414.761,300.718 360.094,300.218 305.5,294.5C 304.614,295.325 304.281,296.325 304.5,297.5C 303.199,296.116 303.199,294.616 304.5,293C 299.348,284.519 294.348,276.019 289.5,267.5C 289.5,266.833 289.167,266.5 288.5,266.5C 245.256,189.341 203.09,111.674 162,33.5C 160.157,29.9851 159.157,26.3184 159,22.5C 162.94,20.85 167.107,20.0167 171.5,20C 183.48,19.0459 195.48,18.5459 207.5,18.5C 253.865,19.4556 300.198,20.6222 346.5,22C 348.552,22.9299 350.052,24.4299 351,26.5C 363.744,51.9846 375.911,77.6512 387.5,103.5 Z"/></g>
<g><path style="opacity:0.996" fill="#176cc7" d="M 497.5,268.5 C 490.809,268.546 484.143,268.212 477.5,267.5C 471.321,266.833 464.988,266.167 458.5,265.5C 435.625,213.375 412.458,161.375 389,109.5C 388.187,107.564 387.687,105.564 387.5,103.5C 400.621,77.0996 414.955,51.2663 430.5,26C 432.087,25.1376 433.754,24.4709 435.5,24C 494.169,22.5399 552.836,22.8732 611.5,25C 617.732,26.7 619.232,30.5334 616,36.5C 575.132,113.231 533.965,189.898 492.5,266.5C 494.291,267.17 495.958,267.837 497.5,268.5 Z"/></g>
<g><path style="opacity:0.394" fill="#d0d1d5" d="M 288.5,266.5 C 289.167,266.5 289.5,266.833 289.5,267.5C 285.865,268.114 282.198,268.448 278.5,268.5C 281.544,266.989 284.878,266.322 288.5,266.5 Z"/></g>
<g><path style="opacity:1" fill="#c75e40" d="M 289.5,267.5 C 294.348,276.019 299.348,284.519 304.5,293C 303.199,294.616 303.199,296.116 304.5,297.5C 319.489,306.149 334.489,314.816 349.5,323.5C 351.373,323.518 351.706,323.018 350.5,322C 351.314,319.373 352.647,317.04 354.5,315C 380.829,313.247 407.162,313.08 433.5,314.5C 436.345,315.344 439.345,316.01 442.5,316.5C 443.338,316.842 443.672,317.508 443.5,318.5C 443.187,321.247 443.52,323.914 444.5,326.5C 445.522,326.145 446.189,325.478 446.5,324.5C 456.96,315.769 467.96,307.769 479.5,300.5C 481.687,298.718 482.02,296.552 480.5,294C 477.183,293.502 473.85,293.335 470.5,293.5C 466.646,285.279 462.979,276.946 459.5,268.5C 465.463,267.504 471.463,267.171 477.5,267.5C 484.143,268.212 490.809,268.546 497.5,268.5C 497.833,268.5 498.167,268.5 498.5,268.5C 502.316,269.482 506.316,270.149 510.5,270.5C 512.408,271.486 513.408,273.152 513.5,275.5C 513.741,280.694 514.407,285.694 515.5,290.5C 515.814,301.255 515.147,311.922 513.5,322.5C 512.284,324.451 510.618,325.951 508.5,327C 488.378,337.71 468.045,348.043 447.5,358C 446.544,361.394 446.211,364.894 446.5,368.5C 502.883,379.095 548.383,407.095 583,452.5C 611.715,497.723 622.715,547.056 616,600.5C 602.884,685.947 555.718,743.447 474.5,773C 393.304,796.493 319.304,782.493 252.5,731C 198.558,683.893 174.725,624.393 181,552.5C 187.495,485.1 218.995,433.267 275.5,397C 297.462,383.402 321.129,374.235 346.5,369.5C 348.117,368.411 348.95,366.744 349,364.5C 349.796,361.961 349.629,359.628 348.5,357.5C 346.033,357.245 344.033,356.245 342.5,354.5C 340.574,352.707 338.241,351.707 335.5,351.5C 318.518,344.176 301.851,336.01 285.5,327C 282.58,325.054 279.913,322.887 277.5,320.5C 276.136,318.809 274.803,317.142 273.5,315.5C 272.231,300.827 272.231,286.16 273.5,271.5C 274.048,268.916 275.715,267.916 278.5,268.5C 282.198,268.448 285.865,268.114 289.5,267.5 Z M 470.5,294.5 C 473.518,294.335 476.518,294.502 479.5,295C 480.536,296.776 480.536,298.609 479.5,300.5C 467.96,307.769 456.96,315.769 446.5,324.5C 444.557,323.922 444.223,322.922 445.5,321.5C 445.058,320.261 444.391,319.261 443.5,318.5C 443.672,317.508 443.338,316.842 442.5,316.5C 442.389,315.883 442.056,315.383 441.5,315C 438.854,314.503 436.187,314.336 433.5,314.5C 407.162,313.08 380.829,313.247 354.5,315C 352.647,317.04 351.314,319.373 350.5,322C 351.706,323.018 351.373,323.518 349.5,323.5C 334.489,314.816 319.489,306.149 304.5,297.5C 304.281,296.325 304.614,295.325 305.5,294.5C 360.094,300.218 414.761,300.718 469.5,296C 470.056,295.617 470.389,295.117 470.5,294.5 Z"/></g>
<g><path style="opacity:0.537" fill="#ceccd2" d="M 498.5,268.5 C 501.85,268.335 505.183,268.502 508.5,269C 509.416,269.278 510.082,269.778 510.5,270.5C 506.316,270.149 502.316,269.482 498.5,268.5 Z"/></g>
<g><path style="opacity:0.595" fill="#cecdd2" d="M 273.5,271.5 C 272.231,286.16 272.231,300.827 273.5,315.5C 271.945,307.899 271.279,300.066 271.5,292C 271.667,286.167 271.833,280.333 272,274.5C 272.232,273.263 272.732,272.263 273.5,271.5 Z"/></g>
<g><path style="opacity:0.525" fill="#cfcfd3" d="M 513.5,275.5 C 515.238,280.217 515.904,285.217 515.5,290.5C 514.407,285.694 513.741,280.694 513.5,275.5 Z"/></g>
<g><path style="opacity:0.481" fill="#ceccd1" d="M 470.5,294.5 C 470.5,294.167 470.5,293.833 470.5,293.5C 473.85,293.335 477.183,293.502 480.5,294C 482.02,296.552 481.687,298.718 479.5,300.5C 480.536,298.609 480.536,296.776 479.5,295C 476.518,294.502 473.518,294.335 470.5,294.5 Z"/></g>
<g><path style="opacity:0.347" fill="#d0cfd4" d="M 433.5,314.5 C 436.187,314.336 438.854,314.503 441.5,315C 442.056,315.383 442.389,315.883 442.5,316.5C 439.345,316.01 436.345,315.344 433.5,314.5 Z"/></g>
<g><path style="opacity:0.49" fill="#cecdd2" d="M 515.5,290.5 C 516.738,300.693 516.572,311.026 515,321.5C 514.617,322.056 514.117,322.389 513.5,322.5C 515.147,311.922 515.814,301.255 515.5,290.5 Z"/></g>
<g><path style="opacity:0.604" fill="#c7c6c9" d="M 273.5,315.5 C 274.803,317.142 276.136,318.809 277.5,320.5C 274.703,320.033 273.369,318.367 273.5,315.5 Z"/></g>
<g><path style="opacity:0.564" fill="#d1c9d4" d="M 443.5,318.5 C 444.391,319.261 445.058,320.261 445.5,321.5C 444.223,322.922 444.557,323.922 446.5,324.5C 446.189,325.478 445.522,326.145 444.5,326.5C 443.52,323.914 443.187,321.247 443.5,318.5 Z"/></g>
<g><path style="opacity:0.024" fill="#d5d5d8" d="M 335.5,351.5 C 338.241,351.707 340.574,352.707 342.5,354.5C 339.759,354.293 337.426,353.293 335.5,351.5 Z"/></g>
<g><path style="opacity:0.773" fill="#cbc9ce" d="M 348.5,357.5 C 349.629,359.628 349.796,361.961 349,364.5C 348.95,366.744 348.117,368.411 346.5,369.5C 347.327,365.561 347.994,361.561 348.5,357.5 Z"/></g>
<g><path style="opacity:1" fill="#a5391a" d="M 392.5,385.5 C 475.623,386.622 534.789,424.622 570,499.5C 600.443,585.57 581.276,658.404 512.5,718C 448.758,763.912 381.758,768.912 311.5,733C 241.458,690.755 209.624,628.588 216,546.5C 217.561,533.922 220.228,521.589 224,509.5C 232.5,497.171 240.5,484.504 248,471.5C 260.424,453.176 275.257,437.01 292.5,423C 300.172,417.829 308.172,413.162 316.5,409C 331.833,402.667 347.167,396.333 362.5,390C 372.567,387.931 382.567,386.431 392.5,385.5 Z"/></g>
<g><path style="opacity:1" fill="#c65b3d" d="M 385.5,407.5 C 454.943,405.628 507.776,433.961 544,492.5C 577.264,558.296 570.597,619.629 524,676.5C 475.176,730.919 415.676,747.086 345.5,725C 281.412,699.232 244.579,652.066 235,583.5C 231.733,515.52 259.233,464.353 317.5,430C 338.963,418.477 361.63,410.977 385.5,407.5 Z"/></g>
<g><path style="opacity:1" fill="#a6391b" d="M 386.5,466.5 C 401.534,466.373 416.2,468.54 430.5,473C 455.566,484.96 466.066,504.793 462,532.5C 459.451,545.371 452.618,555.204 441.5,562C 434.408,565.586 427.075,568.586 419.5,571C 460.938,578.694 475.771,602.861 464,643.5C 457.383,657.45 446.883,667.283 432.5,673C 413.166,678.622 393.499,679.955 373.5,677C 342.191,670.86 324.524,652.027 320.5,620.5C 333.807,619.002 347.141,618.168 360.5,618C 366.008,640.461 380.341,649.794 403.5,646C 422.569,640.725 430.069,628.225 426,608.5C 421.556,596.845 413.056,590.345 400.5,589C 391.833,588.667 383.167,588.333 374.5,588C 373.513,577.248 373.18,566.415 373.5,555.5C 382.9,555.886 392.234,555.386 401.5,554C 417.348,548.487 424.181,537.321 422,520.5C 418.244,505.449 408.578,498.115 393,498.5C 376.226,499.368 366.559,508.035 364,524.5C 363.275,525.059 362.442,525.392 361.5,525.5C 350.903,523.93 340.237,523.097 329.5,523C 327.059,522.964 325.059,522.131 323.5,520.5C 328.027,495.936 342.027,479.436 365.5,471C 372.6,469.352 379.6,467.852 386.5,466.5 Z"/></g>
</svg>
