<?xml version="1.0" encoding="utf-8"?>
<svg version="1.1" id="_x35_" xmlns="http://www.w3.org/2000/svg" xmlns:xlink="http://www.w3.org/1999/xlink" x="0px" y="0px"
	 viewBox="0 0 800 800" style="enable-background:new 0 0 800 800;" xml:space="preserve">
<g>
	<g>
		<polygon style="fill:#86CDCD;" points="266.5,468.8 175.2,563 201.4,590.1 312,476.1 		"/>
		<polygon style="fill:#78BCBC;" points="221.4,461.6 151.6,538.6 175.2,563 266.5,468.8 		"/>
		<polygon style="fill:#78BCBC;" points="448.1,497.8 403,490.6 307.6,589.1 360.3,588.3 		"/>
		<polygon style="fill:#86CDCD;" points="357.5,483.3 254.2,589.9 307.6,589.1 403,490.6 		"/>
		<polygon style="fill:#78BCBC;" points="312,476.1 201.4,590.1 201.9,590.7 254.2,589.9 357.5,483.3 		"/>
	</g>
	<g>
		<polygon style="fill:#72B7B5;" points="181.1,288.3 225.1,336.6 257.1,329.9 196.3,254.2 		"/>
		<polygon style="fill:#86CDCD;" points="196.3,254.2 257.1,329.9 295.7,321.9 212.4,218.1 		"/>
		<polygon style="fill:#86CDCD;" points="299.9,209.3 255.4,209.3 338.5,312.9 376.6,304.9 		"/>
		<polygon style="fill:#72B7B5;" points="216.3,209.3 212.4,218.1 295.7,321.9 338.5,312.9 255.4,209.3 		"/>
		<polygon style="fill:#72B7B5;" points="413.8,297.1 339.2,209.3 299.9,209.3 376.6,304.9 		"/>
	</g>
	<polygon style="fill:#6EC5C4;" points="567.3,242.6 567.3,514.9 280.1,514.9 243.3,475.1 240.4,472 232.8,463.9 196,424.1 166.3,424.1 
		166.3,305.3 196,305.3 218.1,293.6 239.5,282.3 240.2,282 303.3,248.7 314.8,242.6 	"/>
	<g>
		<path style="fill:#867675;" d="M335.7,242.6c0,13.3-6.5,25-16.5,32.1c-6.6,4.8-14.6,7.6-23.3,7.6h-56.4l0.6-0.3l63.2-33.3l11.5-6.1H335.7z"
			/>
		<path style="fill:#549696;" d="M332.4,333.4c0,1.9-0.1,3.8-0.4,5.5c-1.5,11-7.4,20.5-16,26.7c-6.6,4.7-14.6,7.5-23.4,7.5h-75.3
			c-22.1,0-39.8-17.9-39.8-39.8c0-11.1,4.4-20.9,11.5-28.1h7l22.1-11.7h74.5c8.8,0,16.8,2.8,23.4,7.5c7,5.1,12.3,12.4,14.7,21
			C331.9,325.7,332.4,329.4,332.4,333.4z"/>
		<path style="fill:#867675;" d="M332.4,514.9h-52.2l-36.9-39.8h49.3c8.8,0,16.8,2.8,23.4,7.5C325.9,489.8,332.4,501.6,332.4,514.9z"/>
		<path style="fill:#549696;" d="M332.4,424.1c0,3.9-0.5,7.6-1.6,11.2c-2.5,8.6-7.8,16-14.8,21.1c-6.6,4.7-14.6,7.5-23.4,7.5h-59.7L196,424.1
			h-18.5c0-11,4.4-21,11.6-28.2c7.2-7.2,17.2-11.6,28.2-11.6h75.3c8.8,0,16.8,2.7,23.4,7.5c8.5,6.2,14.4,15.7,16,26.6
			C332.3,420.4,332.4,422.3,332.4,424.1z"/>
	</g>
	<g>
		<polygon style="fill:#78BCBC;" points="95,216.2 57,275.6 142.5,275.6 		"/>
		<polygon style="fill:#78BCBC;" points="95,513.3 142.5,453.8 57,453.8 		"/>
		<polygon style="fill:#78BCBC;" points="166.3,335 19,335 0,364.7 19,394.4 166.3,394.4 		"/>
		<polygon style="fill:#86CDCD;" points="166.3,305.3 142.5,275.6 57,275.6 19,335 166.3,335 		"/>
		<polygon style="fill:#86CDCD;" points="166.3,394.4 19,394.4 57,453.8 142.5,453.8 166.3,424.1 		"/>
	</g>
	<g>
		<path style="fill:#6EC5C4;" d="M395,282.3c0,4-0.5,7.7-1.7,11.3c-4.8,16.5-20.2,28.5-38.1,28.5h-75.3c-18.1,0-33.3-12-38.1-28.5
			c-1.1-3.5-1.7-7.3-1.7-11.3V282l63.2-33.3l11.5-6.1h40.4C377.2,242.6,395,260.4,395,282.3z"/>
		<path style="fill:#6EC5C4;" d="M395,378.7c0,22-17.8,39.8-39.8,39.8h-75.4c-22,0-39.8-17.8-39.8-39.8l0,0c0-22,17.8-39.8,39.8-39.8h75.4
			C377.2,338.9,395,356.8,395,378.7L395,378.7z"/>
		<path style="fill:#6EC5C4;" d="M243.3,475.1l36.9,39.8h19.3h32.9h22.9c21.9,0,39.8-17.9,39.8-39.8c0-3.9-0.5-7.6-1.6-11.2
			c-4.9-16.5-20.2-28.6-38.2-28.6h-24.4h-29.7h-21.2c-11,0-21,4.5-28.2,11.7c-4.7,4.7-8.2,10.4-9.9,16.9c-0.8,2.6-1.4,5.2-1.5,8
			L243.3,475.1z"/>
	</g>
	<g>
		<path style="fill:#549696;" d="M457.7,242.6c0,13.3-6.5,25-16.5,32.1c-6.6,4.8-14.6,7.6-23.3,7.6h-75.4c-8.7,0-16.7-2.8-23.3-7.6
			c-8.4-6-14.3-15.3-15.9-26l11.5-6.1H457.7z"/>
		<path style="fill:#549696;" d="M454.4,333.3c0,22-17.8,39.8-39.8,39.8h-75.4c-22,0-39.8-17.8-39.8-39.8l0,0c0-22,17.8-39.8,39.8-39.8h75.4
			C436.6,293.6,454.4,311.4,454.4,333.3L454.4,333.3z"/>
		<path style="fill:#549696;" d="M454.4,514.9H299.5c0-11.1,4.4-21,11.6-28.2c1.6-1.5,3.1-2.9,4.9-4.1c6.6-4.7,14.6-7.5,23.3-7.5h75.3
			c8.8,0,16.8,2.8,23.4,7.5C447.9,489.8,454.4,501.6,454.4,514.9z"/>
		<path style="fill:#549696;" d="M454.4,424.1c0,22-17.8,39.8-39.8,39.8h-75.4c-22,0-39.8-17.8-39.8-39.8l0,0c0-22,17.8-39.8,39.8-39.8h75.4
			C436.6,384.3,454.4,402.1,454.4,424.1L454.4,424.1z"/>
	</g>
	<g>
		<path style="fill:#6EC5C4;" d="M517,282.3c0,22-17.8,39.8-39.8,39.8h-75.4c-22,0-39.8-17.8-39.8-39.8l0,0c0-22,17.8-39.8,39.8-39.8h75.4
			C499.2,242.6,517,260.4,517,282.3L517,282.3z"/>
		<path style="fill:#6EC5C4;" d="M517,378.7c0,22-17.8,39.8-39.8,39.8h-75.4c-22,0-39.8-17.8-39.8-39.8l0,0c0-22,17.8-39.8,39.8-39.8h75.4
			C499.2,338.9,517,356.8,517,378.7L517,378.7z"/>
		<path style="fill:#6EC5C4;" d="M517,475.1c0,22-17.8,39.8-39.8,39.8h-75.4c-22,0-39.8-17.8-39.8-39.8l0,0c0-22,17.8-39.8,39.8-39.8h75.4
			C499.2,435.3,517,453.1,517,475.1L517,475.1z"/>
	</g>
	<g>
		<path style="fill:#549696;" d="M567.3,242.6v28.7c-7.1,6.8-16.7,11-27.4,11h-75.4c-8.7,0-16.7-2.8-23.3-7.6c-10-7.1-16.5-18.8-16.5-32.1
			C424.7,242.6,567.3,242.6,567.3,242.6z"/>
		<path style="fill:#549696;" d="M576.4,333.3c0,22-17.8,39.8-39.8,39.8h-75.4c-22,0-39.8-17.8-39.8-39.8l0,0c0-22,17.8-39.8,39.8-39.8h75.4
			C558.6,293.6,576.4,311.4,576.4,333.3L576.4,333.3z"/>
		<path style="fill:#549696;" d="M567.3,489.5v25.4H421.5c0-11.1,4.4-21,11.6-28.2c1.6-1.5,3.1-2.9,4.9-4.1c6.6-4.7,14.5-7.5,23.2-7.5h75.4
			C548.9,475.1,560,480.8,567.3,489.5z"/>
		<path style="fill:#549696;" d="M576.4,424.1c0,22-17.8,39.8-39.8,39.8h-75.4c-22,0-39.8-17.8-39.8-39.8l0,0c0-22,17.8-39.8,39.8-39.8h75.4
			C558.6,384.3,576.4,402.1,576.4,424.1L576.4,424.1z"/>
	</g>
	<g>
		<path style="fill:#6EC5C4;" d="M639,282.3c0,22-17.8,39.8-39.8,39.8h-75.4c-22,0-39.8-17.8-39.8-39.8l0,0c0-22,17.8-39.8,39.8-39.8h75.4
			C621.2,242.6,639,260.4,639,282.3L639,282.3z"/>
		<path style="fill:#6EC5C4;" d="M639,378.7c0,22-17.8,39.8-39.8,39.8h-75.4c-22,0-39.8-17.8-39.8-39.8l0,0c0-22,17.8-39.8,39.8-39.8h75.4
			C621.2,338.9,639,356.8,639,378.7L639,378.7z"/>
		<path style="fill:#6EC5C4;" d="M639,475.1c0,22-17.8,39.8-39.8,39.8h-75.4c-22,0-39.8-17.8-39.8-39.8l0,0c0-22,17.8-39.8,39.8-39.8h75.4
			C621.2,435.3,639,453.1,639,475.1L639,475.1z"/>
	</g>
	<polygon style="fill:#78BCBC;" points="601.7,474.9 611.7,575.5 668,575.5 621.6,470.3 	"/>
	<polygon style="fill:#549696;" points="800,242.6 800,321.8 639.1,514.9 567.3,514.9 527.6,369.7 567.3,242.6 	"/>
	<path style="fill:#FFFFFF;" d="M691.1,306.9c0,16.4-13.3,29.7-29.7,29.7c-16.4,0-29.7-13.3-29.7-29.7c0-16.4,13.3-29.7,29.7-29.7
		C677.8,277.2,691.1,290.5,691.1,306.9z"/>
	<path style="fill:#005151;" d="M676,306.9c0,8-6.5,14.6-14.6,14.6c-8,0-14.6-6.5-14.6-14.6c0-8,6.5-14.5,14.6-14.5
		C669.5,292.4,676,298.9,676,306.9z"/>
	<polygon style="fill:#86CDCD;" points="609.3,484 595.6,584.7 517.8,584.7 581.9,479.5 	"/>
	<g>
		<polygon style="fill:#468582;" points="800,255.3 800,286 705,387.2 689.7,372.9 		"/>
	</g>
</g>
</svg>
